# xmcd CD database file generated by Grip 3.2.0
# 
# Track frame offsets:
#       150
#       15182
#       31682
#       45355
#       58942
#       72635
#       91680
#       107255
#       126975
#       143990
#       161077
#       171972
#       189667
#       203655
#       217620
#       230695
#       244977
#       260707
#       273997
#       290182
# 
# Disc length: 4053 seconds
# 
# Revision: 3
# Processed by: cddbd v1.5.2PL0 Copyright (c) Steve Scherf et al.
# Submitted via: Grip 3.2.0
# 
DISCID=220fd314
DTITLE=Clara Nunes - Raízes do Samba
DYEAR=1999
DGENRE=Blues
TTITLE0=Tristeza pé no chão
TTITLE1=Conto de areia
TTITLE2=Coração leviano
TTITLE3=O mar serenou
TTITLE4=É baiana
TTITLE5=Macunaíma
TTITLE6=Ilu Ayê
TTITLE7=Canto das Três raças
TTITLE8=Portela na avenida
TTITLE9=Serrinha
TTITLE10=Guerreira
TTITLE11=As forças da natureza
TTITLE12=Meu sapato já furou
TTITLE13=Menino Deus
TTITLE14=Juízo final
TTITLE15=Tudo é ilusão
TTITLE16=Lama
TTITLE17=Sofrimento de quem ama
TTITLE18=Nação
TTITLE19=Coisa da antiga
EXTD=
EXTT0=
EXTT1=
EXTT2=
EXTT3=
EXTT4=
EXTT5=
EXTT6=
EXTT7=
EXTT8=
EXTT9=
EXTT10=
EXTT11=
EXTT12=
EXTT13=
EXTT14=
EXTT15=
EXTT16=
EXTT17=
EXTT18=
EXTT19=
PLAYORDER=
